{"accessors":[{"bufferView":2,"componentType":5126,"count":134,"max":[6.8154988288879395,9.892253875732422,18.501737594604492],"min":[-6.815455436706543,-2.927298069000244,-14.820127487182617],"type":"VEC3"},{"bufferView":2,"byteOffset":1608,"componentType":5126,"count":134,"max":[0.9953990578651428,0.9964858889579773,0.9570610523223877],"min":[-0.9972076416015625,-0.9035135507583618,-0.9994121193885803],"type":"VEC3"},{"bufferView":1,"componentType":5126,"count":134,"max":[0.9332802295684814,0.6543704867362976],"min":[0.012806713581085205,0.02443377673625946],"type":"VEC2"},{"bufferView":0,"componentType":5125,"count":546,"type":"SCALAR"},{"bufferView":2,"byteOffset":3216,"componentType":5126,"count":20,"max":[0.10596261918544769,0.5636312961578369,0.20051264762878418],"min":[-0.10596261918544769,0.26794350147247314,-0.14758574962615967],"type":"VEC3"},{"bufferView":2,"byteOffset":3456,"componentType":5126,"count":20,"max":[0.8763992786407471,0.9935445785522461,0.7120804786682129],"min":[-0.8763992190361023,0.07925742119550705,-0.6219014525413513],"type":"VEC3"},{"bufferView":1,"byteOffset":1072,"componentType":5126,"count":20,"max":[0.7324545383453369,0.6527122259140015],"min":[0.531453013420105,0.43598616123199463],"type":"VEC2"},{"bufferView":0,"byteOffset":2184,"componentType":5125,"count":30,"type":"SCALAR"},{"bufferView":2,"byteOffset":3696,"componentType":5126,"count":16,"max":[0.8287346959114075,-0.7458207607269287,0.33672261238098145],"min":[0.21894079446792603,-1.2818517684936523,0.22401365637779236],"type":"VEC3"},{"bufferView":2,"byteOffset":3888,"componentType":5126,"count":16,"max":[0.38839277625083923,0.01623152568936348,0.9989913105964661],"min":[-0.495866984128952,-0.03826826438307762,0.8683346509933472],"type":"VEC3"},{"bufferView":1,"byteOffset":1232,"componentType":5126,"count":16,"max":[0.1946704387664795,0.6009881496429443],"min":[0.036706022918224335,0.5483136773109436],"type":"VEC2"},{"bufferView":0,"byteOffset":2304,"componentType":5125,"count":42,"type":"SCALAR"},{"bufferView":2,"byteOffset":4080,"componentType":5126,"count":36,"max":[0.26259782910346985,0.5936412811279297,0.26259782910346985],"min":[-0.26259782910346985,-1.0510387420654297,-0.26259782910346985],"type":"VEC3"},{"bufferView":2,"byteOffset":4512,"componentType":5126,"count":36,"max":[0.999182939529419,1,0.999182939529419],"min":[-0.999182939529419,-1,-0.999182939529419],"type":"VEC3"},{"bufferView":1,"byteOffset":1360,"componentType":5126,"count":36,"max":[0.53436279296875,0.5608088970184326],"min":[0.038801394402980804,0.4645524024963379],"type":"VEC2"},{"bufferView":0,"byteOffset":2472,"componentType":5125,"count":96,"type":"SCALAR"},{"bufferView":2,"byteOffset":4944,"componentType":5126,"count":25,"max":[8.524060249328613,24.18669319152832,6.670089244842529],"min":[-8.012519836425781,6.121254920959473,-0.1288897842168808],"type":"VEC3"},{"bufferView":2,"byteOffset":5244,"componentType":5126,"count":25,"max":[0.6023279428482056,0.5790919661521912,0.9972273111343384],"min":[-0.6432948112487793,-0.40247371792793274,0.6512962579727173],"type":"VEC3"},{"bufferView":1,"byteOffset":1648,"componentType":5126,"count":25,"max":[0.43398669362068176,0.9727935194969177],"min":[0.06754537671804428,0.6336224675178528],"type":"VEC2"},{"bufferView":0,"byteOffset":2856,"componentType":5125,"count":96,"type":"SCALAR"},{"bufferView":2,"byteOffset":5544,"componentType":5126,"count":45,"max":[0.27782630920410156,0.5508243441581726,0.19195494055747986],"min":[-0.2778186798095703,-0.5508241653442383,-0.2778196930885315],"type":"VEC3"},{"bufferView":2,"byteOffset":6084,"componentType":5126,"count":45,"max":[0.9994093775749207,1,0.9405538439750671],"min":[-0.9994091987609863,-1,-0.9994094371795654],"type":"VEC3"},{"bufferView":1,"byteOffset":1848,"componentType":5126,"count":45,"max":[0.9172798991203308,0.9742401838302612],"min":[0.855617344379425,0.6590179204940796],"type":"VEC2"},{"bufferView":0,"byteOffset":3240,"componentType":5125,"count":84,"type":"SCALAR"},{"bufferView":2,"byteOffset":6624,"componentType":5126,"count":41,"max":[0.27782636880874634,0.5671573877334595,0.19195500016212463],"min":[-0.2778187394142151,-0.6950491666793823,-0.27781975269317627],"type":"VEC3"},{"bufferView":2,"byteOffset":7116,"componentType":5126,"count":41,"max":[0.993579089641571,1,0.9363102912902832],"min":[-0.9936947822570801,-1,-0.9951639175415039],"type":"VEC3"},{"bufferView":1,"byteOffset":2208,"componentType":5126,"count":41,"max":[0.9764260053634644,0.976788341999054],"min":[0.8544403314590454,0.02155512571334839],"type":"VEC2"},{"bufferView":0,"byteOffset":3576,"componentType":5125,"count":84,"type":"SCALAR"},{"bufferView":2,"byteOffset":7608,"componentType":5126,"count":12,"max":[0.756844699382782,-0.7458207607269287,0.3342684209346771],"min":[0.21894079446792603,-1.2800934314727783,0.22401365637779236],"type":"VEC3"},{"bufferView":2,"byteOffset":7752,"componentType":5126,"count":12,"max":[0.38839277625083923,0.014369046315550804,0.9914876222610474],"min":[-0.4679394066333771,-0.0514373853802681,0.8837601542472839],"type":"VEC3"},{"bufferView":1,"byteOffset":2536,"componentType":5126,"count":12,"max":[0.1946704387664795,0.6009881496429443],"min":[0.036706022918224335,0.5483136773109436],"type":"VEC2"},{"bufferView":0,"byteOffset":3912,"componentType":5125,"count":30,"type":"SCALAR"},{"bufferView":2,"byteOffset":7896,"componentType":5126,"count":25,"max":[8.262301445007324,21.65877914428711,-3.187232494354248],"min":[-8.020583152770996,5.762142658233643,-9.748960494995117],"type":"VEC3"},{"bufferView":2,"byteOffset":8196,"componentType":5126,"count":25,"max":[0.46285519003868103,0.5405882000923157,0.9998062252998352],"min":[-0.46084272861480713,-0.28289180994033813,0.8047329783439636],"type":"VEC3"},{"bufferView":1,"byteOffset":2632,"componentType":5126,"count":25,"max":[0.8055118322372437,0.9727935194969177],"min":[0.46004337072372437,0.6677789092063904],"type":"VEC2"},{"bufferView":0,"byteOffset":4032,"componentType":5125,"count":96,"type":"SCALAR"},{"bufferView":2,"byteOffset":8496,"componentType":5126,"count":29,"max":[0.27069753408432007,0.5671574473381042,0.1859307587146759],"min":[-0.27068984508514404,-0.6298233866691589,-0.2717897295951843],"type":"VEC3"},{"bufferView":2,"byteOffset":8844,"componentType":5126,"count":29,"max":[0.9935791492462158,1,0.9363104104995728],"min":[-0.9936947226524353,0.09059516340494156,-0.9951639175415039],"type":"VEC3"},{"bufferView":1,"byteOffset":2832,"componentType":5126,"count":29,"max":[0.9764260053634644,0.9767884612083435],"min":[0.854440450668335,0.0709168016910553],"type":"VEC2"},{"bufferView":0,"byteOffset":4416,"componentType":5125,"count":63,"type":"SCALAR"},{"bufferView":2,"byteOffset":9192,"componentType":5126,"count":45,"max":[0.27782630920410156,0.5508243441581726,0.19195494055747986],"min":[-0.2778186798095703,-0.5508241653442383,-0.2778196930885315],"type":"VEC3"},{"bufferView":2,"byteOffset":9732,"componentType":5126,"count":45,"max":[0.9994093775749207,1,0.9405538439750671],"min":[-0.9994091987609863,-1,-0.9994094371795654],"type":"VEC3"},{"bufferView":1,"byteOffset":3064,"componentType":5126,"count":45,"max":[0.9172798991203308,0.9742401838302612],"min":[0.855617344379425,0.6590179204940796],"type":"VEC2"},{"bufferView":0,"byteOffset":4668,"componentType":5125,"count":84,"type":"SCALAR"},{"bufferView":2,"byteOffset":10272,"componentType":5126,"count":25,"max":[7.591977596282959,21.640531539916992,-4.396108627319336],"min":[-7.064704418182373,5.974630832672119,-8.765971183776855],"type":"VEC3"},{"bufferView":2,"byteOffset":10572,"componentType":5126,"count":25,"max":[0.6122840046882629,0.3787631392478943,0.9988556504249573],"min":[-0.5932829976081848,-0.26531171798706055,0.7504194378852844],"type":"VEC3"},{"bufferView":1,"byteOffset":3424,"componentType":5126,"count":25,"max":[0.7772857546806335,0.9727935194969177],"min":[0.48579344153404236,0.6693632006645203],"type":"VEC2"},{"bufferView":0,"byteOffset":5004,"componentType":5125,"count":96,"type":"SCALAR"},{"bufferView":2,"byteOffset":10872,"componentType":5126,"count":30,"max":[0.26058220863342285,0.5671573877334595,0.1773836463689804],"min":[-0.2605745792388916,-0.5372733473777771,-0.26323264837265015],"type":"VEC3"},{"bufferView":2,"byteOffset":11232,"componentType":5126,"count":30,"max":[0.9935791492462158,1,0.9363102912902832],"min":[-0.9936947822570801,0.09059509634971619,-0.9951639771461487],"type":"VEC3"},{"bufferView":1,"byteOffset":3624,"componentType":5126,"count":30,"max":[0.9764260053634644,0.9767884612083435],"min":[0.854440450668335,0.14095714688301086],"type":"VEC2"},{"bufferView":0,"byteOffset":5388,"componentType":5125,"count":63,"type":"SCALAR"},{"bufferView":2,"byteOffset":11592,"componentType":5126,"count":45,"max":[0.27782630920410156,0.5508243441581726,0.19195494055747986],"min":[-0.2778186798095703,-0.5508241653442383,-0.2778196930885315],"type":"VEC3"},{"bufferView":2,"byteOffset":12132,"componentType":5126,"count":45,"max":[0.9994093775749207,1,0.9405538439750671],"min":[-0.9994091987609863,-1,-0.9994094371795654],"type":"VEC3"},{"bufferView":1,"byteOffset":3864,"componentType":5126,"count":45,"max":[0.9172798991203308,0.9742401838302612],"min":[0.855617344379425,0.6590179204940796],"type":"VEC2"},{"bufferView":0,"byteOffset":5640,"componentType":5125,"count":84,"type":"SCALAR"}],"asset":{"extras":{"author":"quirell (https://sketchfab.com/quirell)","license":"CC-BY-4.0 (http://creativecommons.org/licenses/by/4.0/)","source":"https://sketchfab.com/3d-models/barco-464f6f348aaa4d00aca5e5d8e4370c53","title":"Barco"},"generator":"Sketchfab-13.42.0","version":"2.0"},"bufferViews":[{"buffer":0,"byteLength":5976,"name":"floatBufferViews","target":34963},{"buffer":0,"byteLength":4224,"byteOffset":5976,"byteStride":8,"name":"floatBufferViews","target":34962},{"buffer":0,"byteLength":12672,"byteOffset":10200,"byteStride":12,"name":"floatBufferViews","target":34962}],"buffers":[{"byteLength":22872,"uri":"data:application/octet-stream;base64,"}],"images":[{"uri":"data:application/octet-stream;base64,"}],"materials":[{"doubleSided":true,"name":"phong2","pbrMetallicRoughness":{"baseColorTexture":{"index":0},"metallicFactor":0}}],"meshes":[{"name":"barco_phong2_0","primitives":[{"attributes":{"NORMAL":1,"POSITION":0,"TEXCOORD_0":2},"indices":3,"material":0,"mode":4}]},{"name":"pico_phong2_0","primitives":[{"attributes":{"NORMAL":5,"POSITION":4,"TEXCOORD_0":6},"indices":7,"material":0,"mode":4}]},{"name":"bandra2_phong2_0","primitives":[{"attributes":{"NORMAL":9,"POSITION":8,"TEXCOORD_0":10},"indices":11,"material":0,"mode":4}]},{"name":"vista_phong2_0","primitives":[{"attributes":{"NORMAL":13,"POSITION":12,"TEXCOORD_0":14},"indices":15,"material":0,"mode":4}]},{"name":"vela2_phong2_0","primitives":[{"attributes":{"NORMAL":17,"POSITION":16,"TEXCOORD_0":18},"indices":19,"material":0,"mode":4}]},{"name":"palo1_phong2_0","primitives":[{"attributes":{"NORMAL":21,"POSITION":20,"TEXCOORD_0":22},"indices":23,"material":0,"mode":4}]},{"name":"mastil_1_phong2_0","primitives":[{"attributes":{"NORMAL":25,"POSITION":24,"TEXCOORD_0":26},"indices":27,"material":0,"mode":4}]},{"name":"bandra1_phong2_0","primitives":[{"attributes":{"NORMAL":29,"POSITION":28,"TEXCOORD_0":30},"indices":31,"material":0,"mode":4}]},{"name":"vela_phong2_0","primitives":[{"attributes":{"NORMAL":33,"POSITION":32,"TEXCOORD_0":34},"indices":35,"material":0,"mode":4}]},{"name":"mastil_2_phong2_0","primitives":[{"attributes":{"NORMAL":37,"POSITION":36,"TEXCOORD_0":38},"indices":39,"material":0,"mode":4}]},{"name":"palo_phong2_0","primitives":[{"attributes":{"NORMAL":41,"POSITION":40,"TEXCOORD_0":42},"indices":43,"material":0,"mode":4}]},{"name":"vela3_phong2_0","primitives":[{"attributes":{"NORMAL":45,"POSITION":44,"TEXCOORD_0":46},"indices":47,"material":0,"mode":4}]},{"name":"mastil_3_phong2_0","primitives":[{"attributes":{"NORMAL":49,"POSITION":48,"TEXCOORD_0":50},"indices":51,"material":0,"mode":4}]},{"name":"pCube28_phong2_0","primitives":[{"attributes":{"NORMAL":53,"POSITION":52,"TEXCOORD_0":54},"indices":55,"material":0,"mode":4}]}],"nodes":[{"children":[1],"matrix":[-2.220446049250313e-16,-2.220446049250313e-16,1,0,1,-4.930380657631324e-32,2.220446049250313e-16,0,0,1,2.220446049250313e-16,0,0,0,0,1],"name":"Sketchfab_model"},{"children":[2],"matrix":[0.009999999776482582,0,0,0,0,0,0.009999999776482582,0,0,-0.009999999776482582,0,0,0,0,0,1],"name":"612f2fd05fc640878676afd377188253.fbx"},{"children":[3],"name":"RootNode"},{"children":[4,6,8,19,28],"name":"barco"},{"children":[5],"name":"barco"},{"mesh":0,"name":"barco_phong2_0"},{"children":[7],"matrix":[2.971338987350464,0,0,0,0,6.342159420976993,12.499924872761845,0,0,-2.649782680425629,1.3444356155150194,0,0,4.578188896179199,13.639336585998535,1],"name":"pico"},{"mesh":1,"name":"pico_phong2_0"},{"children":[9,11,13,15,17],"matrix":[0.9845863624574139,0,0.17489909909109866,0,0,1,0,0,-0.17489909909109866,0,0.9845863624574139,0,0.380883127450943,0,0.05001397430896759,1],"name":"group1"},{"children":[10],"matrix":[0.21926907913677235,0.6909306329083785,-5.472035472458971,0,0.009076055139707008,2.484870618065479,0.31411772378655417,0,4.76365986085192,-0.040876965963252986,0.1857225100532391,0,-1.387332558631897,31.573528289794922,1.5817028284072876,1],"name":"bandra2"},{"mesh":2,"name":"bandra2_phong2_0"},{"children":[12],"matrix":[-6.806649208068848,8.335741165580381e-16,0,0,-1.5030204623862798e-16,-1.2273093461990356,-3.08148792572569e-33,0,-2.0929104657486163e-48,-1.7089910880474126e-32,6.806649208068848,0,0,26.193565368652344,0,1],"name":"vista"},{"mesh":3,"name":"vista_phong2_0"},{"children":[14],"matrix":[1.106839828144437,-0.004616326215467746,-0.024128149826523244,0,0.00819925720677599,1.094454898631465,0.1667307119022531,0,0.023157078033204027,-0.16686835422705942,1.0942196239069661,0,-0.557102382183075,-2.432718515396118,-3.7013700008392334,1],"name":"vela2"},{"mesh":4,"name":"vela2_phong2_0"},{"children":[16],"matrix":[3.2522994680131336e-16,1.464705467224121,5.777244403782926e-31,0,15.279349327087402,-3.3926970848446652e-15,6.293972815185116e-14,0,6.033513728636605e-15,-5.777244403782926e-31,-1.464705467224121,0,-0.3239549398422241,23.99558448791504,0.5208936333656311,1],"name":"palo1"},{"mesh":5,"name":"palo1_phong2_0"},{"children":[18],"matrix":[-2.999709367752075,3.6735844755899097e-16,1.110223067466672e-16,0,2.6614580596021435e-15,21.732454299926758,2.6614580596021435e-15,0,-1.1102230674666715e-16,3.6735844755899097e-16,-2.999709367752075,0,-0.3239520788192749,18.1433048248291,-0.030015485361218452,1],"name":"mastil_1"},{"mesh":6,"name":"mastil_1_phong2_0"},{"children":[20,22,24,26],"name":"group2"},{"children":[21],"matrix":[1.9624903425671296,0.6399791440114106,-5.119345136925923,0,0.009076055139709563,2.4848706180654787,0.3141177237865544,0,4.455931344550325,-0.22859651327382144,1.679594752835205,0,-1.698362112045288,24.82949447631836,10.717888832092285,1],"name":"bandra1"},{"mesh":7,"name":"bandra1_phong2_0"},{"children":[23],"matrix":[0.9480481031192246,0,0.3181270094978421,0,0,1,0,0,-0.3181270094978421,0,0.9480481031192246,0,-2.1167612075805664,-0.512603223323822,17.406906127929688,1],"name":"vela"},{"mesh":8,"name":"vela_phong2_0"},{"children":[25],"matrix":[-2.28697089250314,2.800731583247136e-16,-0.7674159237773795,0,1.814776366196987e-15,21.732454299926758,2.5231902649371856e-15,0,0.7674159237773795,2.014394853994455e-16,-2.28697089250314,0,-0.3239527940750122,11.332685470581055,9.365907669067383,1],"name":"mastil_2"},{"mesh":9,"name":"mastil_2_phong2_0"},{"children":[27],"matrix":[4.8784492020197e-16,1.3886112398301858,-0.4659623700831486,0,15.279349327087402,1.3570788339378661e-14,5.979628612038722e-14,0,5.894792785773805e-15,-0.4659623700831486,-1.3886112398301858,0,-0.3239549398422241,21.100242614746094,9.95698356628418,1],"name":"palo"},{"mesh":10,"name":"palo_phong2_0"},{"children":[29,31,33],"matrix":[0.8645033959238007,0,0.5026269774258205,0,0,1,0,0,-0.5026269774258205,0,0.8645033959238007,0,-3.547579288482666,0,-0.7816845178604126,1],"name":"group3"},{"children":[30],"matrix":[0.9998628478353379,-0.01656156751663249,-5.548404617694569e-17,0,0.013864060262559468,0.8370076541826085,0.017422895194199917,0,-0.00034461860758599225,-0.020805478832362185,0.9997834832045244,0,-0.19850216805934906,3.942760705947876,-0.4510892629623413,1],"name":"vela3"},{"mesh":11,"name":"vela3_phong2_0"},{"children":[32],"matrix":[-2.5631816387176514,3.1389921894888394e-16,2.2204460232305146e-16,0,2.6614580596021435e-15,21.732454299926758,2.6614580596021435e-15,0,-2.2204460232305141e-16,3.1389921894888394e-16,-2.5631816387176514,0,-0.32395249605178833,11.84528923034668,-9.017619132995605,1],"name":"mastil_3"},{"mesh":12,"name":"mastil_3_phong2_0"},{"children":[34],"matrix":[3.2522994680131336e-16,1.464705467224121,5.777244403782926e-31,0,15.279349327087402,-3.3926970848446652e-15,6.293972815185116e-14,0,6.033513728636605e-15,-5.777244403782926e-31,-1.464705467224121,0,-0.3239549398422241,22.325275421142578,-8.627113342285156,1],"name":"pCube28"},{"mesh":13,"name":"pCube28_phong2_0"}],"samplers":[{"magFilter":9729,"minFilter":9987,"wrapS":10497,"wrapT":10497}],"scene":0,"scenes":[{"name":"Sketchfab_Scene","nodes":[0]}],"textures":[{"sampler":0,"source":0}]}